<svg width="1200" height="280" viewBox="0 0 1200 280" xmlns="http://www.w3.org/2000/svg">
  <defs>
    <pattern id="dots" width="28" height="28" patternUnits="userSpaceOnUse">
      <circle cx="1.5" cy="1.5" r="1.5" fill="#EFECE6" opacity="0.06"/>
    </pattern>
    <clipPath id="frame">
      <rect x="0" y="0" width="1200" height="280" rx="18"/>
    </clipPath>
  </defs>

  <g clip-path="url(#frame)">
    <rect width="1200" height="280" fill="#13161B"/>
    <rect width="1200" height="280" fill="url(#dots)"/>

    <!-- brand mark, from rafaar.com/favicon.svg -->
    <g transform="translate(105,75) scale(2.03125)">
      <rect width="64" height="64" rx="15" fill="#EFECE6" opacity="0">
        <animate attributeName="opacity" values="0;1" dur="0.5s" begin="0.1s" fill="freeze"/>
      </rect>
      <g transform="translate(-89.404 -8.061) scale(0.0274091)" fill="none" stroke="#11203C" stroke-width="190" stroke-miterlimit="10">
        <path pathLength="1" stroke-dasharray="1" stroke-dashoffset="1" d="m4319.59 850.41v-190.75c0-81 65.66-146.66 146.66-146.66h531.33">
          <animate attributeName="stroke-dashoffset" values="1;0" dur="0.9s" begin="0.5s" fill="freeze"/>
        </path>
        <path pathLength="1" stroke-dasharray="1" stroke-dashoffset="1" d="m4319.59 850.41v1559.76c-304.46-123.59-519.59-426.18-519.59-779.89 0-353.68 215.13-656.27 519.59-779.87z">
          <animate attributeName="stroke-dashoffset" values="1;0" dur="0.9s" begin="0.6s" fill="freeze"/>
        </path>
        <path pathLength="1" stroke-dasharray="1" stroke-dashoffset="1" d="m4979.95 1120.81c0 182.35-147.82 330.19-330.19 330.19-182.35 0-330.17-147.84-330.17-330.19 0 0 0-270.38 0-270.4 0-7.96 84.49-29.07 94.14-31.66 35.59-9.58 71.83-16.72 108.38-21.36 107.81-13.7 224.98 0.3 319.98 58.52 88.45 54.2 137.86 163.14 137.86 264.9z">
          <animate attributeName="stroke-dashoffset" values="1;0" dur="0.9s" begin="1.0s" fill="freeze"/>
        </path>
        <path pathLength="1" stroke-dasharray="1" stroke-dashoffset="1" d="m5058.63 2345.04l-717.23-1084.95">
          <animate attributeName="stroke-dashoffset" values="1;0" dur="0.7s" begin="1.3s" fill="freeze"/>
        </path>
      </g>
    </g>

    <text x="360" y="130" font-family="'Source Serif 4', Georgia, serif" font-size="48" font-weight="600" fill="#EFECE6" opacity="0">
      Rafa Al Razzak
      <animate attributeName="opacity" values="0;1" dur="0.8s" begin="1.1s" fill="freeze"/>
    </text>
    <text x="360" y="163" font-family="Manrope, ui-sans-serif, system-ui, sans-serif" font-size="18" fill="#5EB6DE" opacity="0">
      Design &amp; Full-stack Engineer
      <animate attributeName="opacity" values="0;1" dur="0.8s" begin="1.4s" fill="freeze"/>
    </text>
    <text x="360" y="190" font-family="Manrope, ui-sans-serif, system-ui, sans-serif" font-size="14" fill="#A6A196" opacity="0">
      Bogor, Indonesia · TypeScript · React · Go
      <animate attributeName="opacity" values="0;1" dur="0.8s" begin="1.6s" fill="freeze"/>
    </text>
  </g>
</svg>
